<svg width="193" height="17" viewBox="0 0 193 17" fill="none" xmlns="http://www.w3.org/2000/svg">
<path d="M7.18 16.28C3.16 16.28 0.08 13.6 0.08 8.66C0.08 3.78 3.24 0.94 7.18 0.94C9.3 0.94 10.78 1.86 11.74 2.82L10.18 4.72C9.44 4.02 8.6 3.48 7.28 3.48C4.8 3.48 3.1 5.4 3.1 8.56C3.1 11.8 4.58 13.72 7.48 13.72C8.2 13.72 8.92 13.52 9.34 13.18V10.26H6.7V7.84H11.98V14.5C10.98 15.5 9.22 16.28 7.18 16.28ZM15.1559 16V1.2H24.2359V3.66H18.1159V7.08H23.2959V9.58H18.1159V13.52H24.4559V16H15.1559ZM27.4606 16V1.2H30.4606L34.7606 9.1L36.2606 12.3H36.3606C36.2006 10.76 35.9606 8.78 35.9606 7.1V1.2H38.7806V16H35.7606L31.4806 8.08L29.9806 4.92H29.8806C30.0206 6.5 30.2606 8.36 30.2606 10.08V16H27.4606ZM42.4411 16V1.2H51.5211V3.66H45.4011V7.08H50.5811V9.58H45.4011V13.52H51.7411V16H42.4411ZM54.7458 16V1.2H59.8858C62.9858 1.2 65.4458 2.28 65.4458 5.68C65.4458 8.98 62.9858 10.42 59.8858 10.42H57.7058V16H54.7458ZM57.7058 8.08H59.6058C61.5258 8.08 62.5658 7.26 62.5658 5.68C62.5658 4.1 61.5258 3.56 59.6058 3.56H57.7058V8.08ZM62.7858 16L59.3458 9.66L61.4058 7.8L66.0858 16H62.7858ZM66.2052 16L70.9452 1.2H74.4252L79.1652 16H76.0652L73.9452 8.3C73.5052 6.76 73.0852 5.04 72.6652 3.46H72.5852C72.1852 5.06 71.7652 6.76 71.3252 8.3L69.2052 16H66.2052ZM69.1452 12.2V9.92H76.1852V12.2H69.1452ZM80.9177 16V1.2H83.8777V13.52H89.8977V16H80.9177ZM101.431 16.28C99.4314 16.28 97.4714 15.52 96.0314 14.14L97.7314 12.1C98.7714 13.08 100.191 13.72 101.491 13.72C103.031 13.72 103.831 13.06 103.831 12.04C103.831 10.94 102.931 10.58 101.611 10.02L99.6314 9.18C98.1514 8.58 96.6314 7.36 96.6314 5.22C96.6314 2.8 98.7714 0.94 101.751 0.94C103.471 0.94 105.191 1.62 106.391 2.84L104.911 4.7C103.951 3.92 102.971 3.48 101.751 3.48C100.451 3.48 99.6314 4.06 99.6314 5.02C99.6314 6.08 100.691 6.48 101.951 6.98L103.891 7.78C105.671 8.52 106.851 9.68 106.851 11.8C106.851 14.22 104.831 16.28 101.431 16.28ZM109.492 16V1.2H118.572V3.66H112.452V7.08H117.632V9.58H112.452V13.52H118.792V16H109.492ZM124.737 16V3.66H120.557V1.2H131.877V3.66H127.697V16H124.737ZM137.237 16V3.66H133.057V1.2H144.377V3.66H140.197V16H137.237ZM146.797 16V1.2H149.757V16H146.797ZM153.398 16V1.2H156.398L160.698 9.1L162.198 12.3H162.298C162.138 10.76 161.898 8.78 161.898 7.1V1.2H164.718V16H161.698L157.418 8.08L155.918 4.92H155.818C155.958 6.5 156.198 8.36 156.198 10.08V16H153.398ZM174.739 16.28C170.719 16.28 167.639 13.6 167.639 8.66C167.639 3.78 170.799 0.94 174.739 0.94C176.859 0.94 178.339 1.86 179.299 2.82L177.739 4.72C176.999 4.02 176.159 3.48 174.839 3.48C172.359 3.48 170.659 5.4 170.659 8.56C170.659 11.8 172.139 13.72 175.039 13.72C175.759 13.72 176.479 13.52 176.899 13.18V10.26H174.259V7.84H179.539V14.5C178.539 15.5 176.779 16.28 174.739 16.28ZM187.135 16.28C185.135 16.28 183.175 15.52 181.735 14.14L183.435 12.1C184.475 13.08 185.895 13.72 187.195 13.72C188.735 13.72 189.535 13.06 189.535 12.04C189.535 10.94 188.635 10.58 187.315 10.02L185.335 9.18C183.855 8.58 182.335 7.36 182.335 5.22C182.335 2.8 184.475 0.94 187.455 0.94C189.175 0.94 190.895 1.62 192.095 2.84L190.615 4.7C189.655 3.92 188.675 3.48 187.455 3.48C186.155 3.48 185.335 4.06 185.335 5.02C185.335 6.08 186.395 6.48 187.655 6.98L189.595 7.78C191.375 8.52 192.555 9.68 192.555 11.8C192.555 14.22 190.535 16.28 187.135 16.28Z" fill="white"/>
</svg>
