<svg width="59" height="59" viewBox="0 0 59 59" fill="none" xmlns="http://www.w3.org/2000/svg">
<circle cx="29.5" cy="29.5" r="29.5" fill="#536DFE" fill-opacity="0.9"/>
<path d="M49.1872 26.8895H47.111C46.6672 24.2682 45.6356 21.7814 44.0935 19.6157L45.6739 18.0354C45.8414 17.8681 45.9742 17.6695 46.0649 17.4508C46.1556 17.2322 46.2022 16.9978 46.2022 16.7611C46.2022 16.5244 46.1556 16.2901 46.0649 16.0714C45.9742 15.8528 45.8414 15.6541 45.6739 15.4868L43.7371 13.5503C43.5699 13.3828 43.3712 13.2499 43.1525 13.1593C42.9339 13.0686 42.6995 13.022 42.4627 13.022C42.226 13.022 41.9916 13.0686 41.773 13.1593C41.5543 13.2499 41.3556 13.3828 41.1884 13.5503L39.5615 15.177C37.4331 13.727 35.0117 12.763 32.4691 12.3534V9.80102C32.4691 9.32336 32.2793 8.86527 31.9415 8.52751C31.6037 8.18975 31.1456 8 30.6679 8H28.3205C27.8428 8 27.3847 8.18975 27.0469 8.52751C26.7091 8.86527 26.5193 9.32336 26.5193 9.80102V12.4038C24.2217 12.8082 22.0271 13.6638 20.0622 14.9214L18.474 13.3334C18.1352 12.997 17.6771 12.8083 17.1996 12.8083C16.7222 12.8083 16.2641 12.997 15.9252 13.3334L14.2635 14.995C13.9271 15.3338 13.7384 15.7918 13.7384 16.2692C13.7384 16.7466 13.9271 17.2047 14.2635 17.5435L15.6541 18.9301C13.829 21.2454 12.6155 23.9825 12.1253 26.8895H9.80119C9.32313 26.8905 8.865 27.0811 8.52733 27.4195C8.18965 27.7579 8 28.2164 8 28.6944V31.0415C8 31.278 8.04659 31.5122 8.13711 31.7307C8.22763 31.9493 8.36031 32.1478 8.52756 32.315C8.69482 32.4823 8.89337 32.6149 9.1119 32.7055C9.33043 32.796 9.56465 32.8426 9.80119 32.8426H12.1253C12.5129 35.0925 13.3366 37.2451 14.5501 39.1791C14.4331 39.2496 14.3251 39.3341 14.2286 39.4308L12.5669 41.0924C12.3994 41.2597 12.2665 41.4583 12.1759 41.677C12.0852 41.8956 12.0386 42.13 12.0386 42.3667C12.0386 42.6034 12.0852 42.8378 12.1759 43.0564C12.2665 43.2751 12.3994 43.4737 12.5669 43.641L14.5037 45.5776C14.6709 45.745 14.8696 45.8779 15.0883 45.9685C15.3069 46.0592 15.5413 46.1058 15.778 46.1058C16.0148 46.1058 16.2491 46.0592 16.4678 45.9685C16.6865 45.8779 16.8851 45.745 17.0524 45.5776L18.7142 43.916L18.7568 43.8695C20.9751 45.6016 23.5756 46.7782 26.3411 47.3011V49.199C26.3422 49.677 26.5328 50.1351 26.8712 50.4727C27.2096 50.8104 27.6681 51 28.1462 51H30.4936C30.9713 51 31.4294 50.8103 31.7672 50.4725C32.105 50.1347 32.2947 49.6766 32.2947 49.199V47.4173C34.7813 47.0466 37.1592 46.1458 39.2671 44.7758C39.3456 44.9187 39.4448 45.0492 39.5615 45.1631L41.4982 47.0997C41.8371 47.436 42.2952 47.6248 42.7726 47.6248C43.2501 47.6248 43.7082 47.436 44.047 47.0997L45.7088 45.4381C45.8762 45.2709 46.0091 45.0722 46.0998 44.8536C46.1904 44.6349 46.2371 44.4005 46.2371 44.1638C46.2371 43.9272 46.1904 43.6928 46.0998 43.4741C46.0091 43.2555 45.8762 43.0568 45.7088 42.8896L43.772 40.953C43.7188 40.8939 43.6619 40.8383 43.6016 40.7864C45.4211 38.4702 46.6316 35.7351 47.1226 32.8309H49.1988C49.6765 32.8309 50.1347 32.6412 50.4724 32.3034C50.8102 31.9657 51 31.5076 51 31.0299V28.6828C50.9969 28.2047 50.8043 27.7475 50.4645 27.4113C50.1246 27.0751 49.6653 26.8874 49.1872 26.8895ZM29.6259 38.3541C27.9463 38.3548 26.3041 37.8575 24.9072 36.9249C23.5103 35.9923 22.4214 34.6664 21.7783 33.1148C21.1352 31.5633 20.9667 29.856 21.2942 28.2087C21.6217 26.5615 22.4304 25.0483 23.6181 23.8607C24.8058 22.6732 26.3191 21.8645 27.9665 21.537C29.6139 21.2096 31.3214 21.378 32.8731 22.0211C34.4247 22.6641 35.7508 23.7529 36.6834 25.1497C37.6161 26.5465 38.1135 28.1885 38.1128 29.868C38.1128 32.1186 37.2186 34.2771 35.627 35.8685C34.0354 37.46 31.8768 38.3541 29.6259 38.3541Z" fill="white"/>
</svg>
